<svg xmlns="http://www.w3.org/2000/svg" viewBox="0 0 30 30">
    <path style="line-height:normal;text-indent:0;text-align:start;text-decoration-line:none;text-decoration-style:solid;text-decoration-color:#000;text-transform:none;block-progression:tb;isolation:auto;mix-blend-mode:normal" d="M 9.6171875 4 C 8.8617583 4 8.1653033 4.43107 7.828125 5.1074219 L 2.3828125 16 L 2 16 C 0.9069372 16 0 16.906937 0 18 L 0 19.419922 C 0 20.135468 0.38572069 20.801339 1.0078125 21.15625 L 7.0429688 24.605469 A 1.0001 1.0001 0 0 0 7.0449219 24.605469 C 7.4972415 24.863079 8.0089205 25 8.53125 25 L 28 25 C 29.093063 25 30 24.093063 30 23 L 30 21 A 1.0001 1.0001 0 0 0 29 20 L 28.654297 20 L 22.177734 5.1992188 L 22.177734 5.1972656 C 21.859973 4.4713512 21.136813 4 20.345703 4 L 18.619141 4 C 17.861948 4 17.166434 4.4326827 16.830078 5.109375 L 14.669922 9.4511719 L 13.216797 5.5800781 L 13.171875 5.4277344 C 13.137212 5.3120089 13.09068 5.2028031 13.037109 5.0976562 L 13 5 L 12.978516 5 C 12.625601 4.3957791 11.975488 4 11.255859 4 L 9.6171875 4 z M 18.375 6.4960938 L 22 21 L 19 21 L 15.630859 12.013672 L 18.375 6.4960938 z M 9.2246094 6.7910156 L 11 21 L 9 21 L 3 18 A 1.0001 1.0001 0 0 0 3.8945312 17.447266 L 9.2246094 6.7910156 z" font-weight="400" font-family="sans-serif" white-space="normal" overflow="visible"></path>
</svg>
